<?xml version="1.0" encoding="utf-8"?>
<!-- Generator: Adobe Illustrator 26.4.1, SVG Export Plug-In . SVG Version: 6.00 Build 0)  -->
<svg version="1.1" id="Layer_1" xmlns="http://www.w3.org/2000/svg" xmlns:xlink="http://www.w3.org/1999/xlink" x="0px" y="0px"
	 viewBox="0 0 1872.8 263.7" style="enable-background:new 0 0 1872.8 263.7;" xml:space="preserve">
<style type="text/css">
	.st0{fill:#FFFFFF;}
	.st1{fill:none;stroke:#FFFFFF;stroke-width:20;stroke-miterlimit:10;}
	.st2{fill:none;stroke:#FFFFFF;stroke-width:15;stroke-miterlimit:10;}
	.st3{fill:none;stroke:#FFFFFF;stroke-width:10;stroke-miterlimit:10;}
</style>
<g id="GquIyL.tif">
</g>
<g id="m8Ocz0.tif">
</g>
<g>
	<path class="st0" d="M333.1,119.1h88.7V62.2h25.3v139.3h-25.3v-56.9h-88.7v56.9h-25.3V62.2h25.3V119.1z"/>
	<path class="st0" d="M581.8,166.7c0,3.5-0.6,7.3-1.8,11.3c-1.2,4-3.2,7.8-6,11.3c-2.8,3.5-6.3,6.4-10.8,8.7
		c-4.4,2.3-9.8,3.5-16.2,3.5h-45.6c-3.5,0-7.3-0.6-11.3-1.8c-4-1.2-7.8-3.2-11.3-6c-3.5-2.8-6.4-6.3-8.7-10.8
		c-2.3-4.4-3.5-9.8-3.5-16.2c0-3.5,0.6-7.3,1.8-11.4c1.2-4.1,3.2-7.9,6-11.3c2.8-3.5,6.3-6.4,10.8-8.7c4.4-2.3,9.8-3.5,16.2-3.5H547
		v24.1h-45.6c-3.4,0-6.1,1.1-8,3.2c-1.9,2.1-2.8,4.7-2.8,7.8c0,3.3,1.1,5.9,3.3,7.7c2.2,1.8,4.7,2.8,7.7,2.8H547c3.4,0,6.1-1,8-3.1
		c1.9-2.1,2.8-4.7,2.8-7.8v-35.3c0-3.3-1-5.9-3.1-7.9c-2-1.9-4.6-2.9-7.7-2.9h-55.5v-24H547c3.5,0,7.3,0.6,11.3,1.8
		c4,1.2,7.8,3.2,11.3,6c3.5,2.8,6.4,6.3,8.7,10.8c2.3,4.4,3.5,9.8,3.5,16.2V166.7z"/>
	<path class="st0" d="M716.3,131.3c0,3.5-0.6,7.3-1.8,11.3c-1.2,4-3.2,7.8-6,11.3c-2.8,3.5-6.3,6.4-10.8,8.7
		c-4.4,2.3-9.8,3.5-16.2,3.5H636v-24h45.6c3.4,0,6.1-1.1,8-3.2c1.9-2.1,2.8-4.7,2.8-7.8c0-3.3-1.1-5.9-3.2-7.8
		c-2.1-1.9-4.6-2.8-7.6-2.8H636c-3.4,0-6.1,1.1-8,3.2c-1.9,2.1-2.8,4.7-2.8,7.8v35.3c0,3.4,1.1,6,3.2,7.9c2.1,1.9,4.7,2.8,7.8,2.8
		h45.4v24.1H636c-3.5,0-7.3-0.6-11.3-1.8c-4-1.2-7.8-3.2-11.3-6c-3.5-2.8-6.4-6.3-8.7-10.8c-2.3-4.4-3.5-9.8-3.5-16.2v-35.5
		c0-3.5,0.6-7.3,1.8-11.3c1.2-4,3.2-7.8,6-11.3c2.8-3.5,6.3-6.4,10.8-8.7c4.4-2.3,9.8-3.5,16.2-3.5h45.6c3.5,0,7.3,0.6,11.3,1.8
		c4,1.2,7.8,3.2,11.3,6c3.5,2.8,6.4,6.3,8.7,10.8C715.2,119.5,716.3,124.9,716.3,131.3z"/>
	<path class="st0" d="M827.1,201.5h-25.3v-69.7c0-3.3-0.9-5.8-2.6-7.5c-1.7-1.7-4.3-2.6-7.8-2.6h-32.8v79.8h-25.3V109
		c0-1.7,0.3-3.4,1-4.9c0.6-1.5,1.6-2.8,2.7-4c1.2-1.1,2.5-2,4.1-2.7c1.6-0.6,3.2-1,5-1h45.6c3.5,0,7.3,0.6,11.3,1.8
		c4,1.2,7.8,3.2,11.5,5.9v-7.8h34.2c2.4,0,4.9,0.3,7.6,0.8c2.7,0.6,5.3,1.4,7.9,2.6c2.6,1.2,5.1,2.7,7.5,4.5
		c2.4,1.8,4.5,4.1,6.3,6.7c1.8,2.6,3.3,5.7,4.4,9.1c1.1,3.4,1.7,7.3,1.7,11.7v69.7h-25.3v-69.7c0-3.3-0.8-5.8-2.5-7.5
		c-1.7-1.7-4.2-2.6-7.6-2.6h-22.7c0.8,3.1,1.3,6.5,1.3,10.1V201.5z"/>
	<path class="st0" d="M1021.4,166.1c0,4.3-0.6,8.2-1.7,11.7c-1.1,3.5-2.6,6.5-4.4,9.1c-1.8,2.6-3.9,4.9-6.3,6.7
		c-2.4,1.8-4.9,3.4-7.5,4.5c-2.6,1.2-5.3,2-8,2.6c-2.7,0.6-5.2,0.8-7.6,0.8h-45.6c-3.5,0-7.3-0.6-11.5-1.8c-4.1-1.2-8-3.3-11.5-6.1
		c-3.5-2.8-6.5-6.5-8.8-11c-2.4-4.5-3.5-10-3.5-16.6v-34.2c0-6.5,1.2-12,3.5-16.5c2.4-4.5,5.3-8.2,8.8-11c3.5-2.8,7.4-4.8,11.5-6.1
		c4.1-1.2,8-1.8,11.5-1.8H986c6.5,0,12,1.2,16.5,3.5s8.2,5.3,11,8.8c2.8,3.5,4.8,7.4,6.1,11.5c1.3,4.1,1.9,8,1.9,11.6V166.1z
		 M996.2,132c0-3.5-0.9-6.1-2.6-7.8c-1.7-1.7-4.3-2.5-7.6-2.5h-45.4c-3.4,0-5.9,0.9-7.7,2.6c-1.7,1.7-2.6,4.2-2.6,7.5v34.2
		c0,3.3,0.9,5.8,2.6,7.6c1.8,1.7,4.3,2.6,7.7,2.6H986c3.4,0,6-0.9,7.7-2.6c1.7-1.7,2.5-4.3,2.5-7.6V132z"/>
	<path class="st0" d="M1184.8,170.9c0,3.1-0.5,6.4-1.6,10c-1.1,3.6-2.8,6.9-5.2,9.9c-2.4,3-5.6,5.6-9.5,7.6c-3.9,2-8.6,3.1-14.3,3.1
		h-95.9c-1.8,0-3.5-0.3-5.1-1c-1.6-0.6-2.9-1.5-4-2.7c-1.1-1.1-2-2.5-2.7-4s-1-3.2-1-5.1V74.9c0-1.7,0.3-3.4,1-5s1.5-2.9,2.7-4.1
		c1.1-1.2,2.5-2.1,4-2.7c1.6-0.6,3.2-1,5.1-1h84.5c3.1,0,6.4,0.6,10,1.7c3.6,1.1,6.9,2.9,10,5.3c3.1,2.4,5.6,5.6,7.7,9.5
		c2,3.9,3.1,8.6,3.1,14.3v4.8c0,4.5-0.7,9.3-2.2,14.4c-1.5,5.2-3.9,10-7.2,14.6c2.8,1.7,5.5,3.9,8,6.3c2.5,2.5,4.7,5.3,6.6,8.6
		c1.9,3.2,3.4,6.9,4.5,11c1.1,4.1,1.7,8.6,1.7,13.5V170.9z M1159.5,166.1c0-3.3-0.5-6.3-1.6-8.9c-1-2.6-2.5-4.9-4.4-6.8
		c-1.9-1.9-4.1-3.3-6.8-4.3c-2.7-1-5.6-1.5-8.9-1.5h-56.9v-25.5h45.6c3.3,0,6.3-0.5,8.9-1.5c2.7-1,4.9-2.4,6.8-4.3
		c1.9-1.9,3.3-4.1,4.3-6.8c1-2.6,1.5-5.6,1.5-8.9v-4.8c0-3.6-1.7-5.4-5.2-5.4h-72v88.8h83.4c0.5,0,1,0,1.7-0.1
		c0.6-0.1,1.2-0.3,1.7-0.6c0.5-0.3,1-0.9,1.4-1.7s0.6-1.8,0.6-3.2V166.1z"/>
	<path class="st0" d="M1295.8,121.7H1239c-3.4,0-6,0.9-7.8,2.6c-1.7,1.7-2.6,4.2-2.6,7.5v69.7h-25.3v-69.7c0-4.3,0.5-8.2,1.7-11.7
		c1.1-3.4,2.6-6.5,4.4-9.1c1.8-2.6,4-4.9,6.4-6.7c2.4-1.8,4.9-3.4,7.5-4.5c2.6-1.2,5.3-2,8-2.6c2.7-0.5,5.2-0.8,7.5-0.8h57V121.7z"
		/>
	<path class="st0" d="M1426.3,166.1c0,4.3-0.6,8.2-1.7,11.7c-1.1,3.5-2.6,6.5-4.4,9.1c-1.8,2.6-3.9,4.9-6.3,6.7
		c-2.4,1.8-4.9,3.4-7.5,4.5c-2.6,1.2-5.3,2-8,2.6c-2.7,0.6-5.2,0.8-7.6,0.8h-45.6c-3.5,0-7.3-0.6-11.5-1.8c-4.1-1.2-8-3.3-11.5-6.1
		c-3.5-2.8-6.5-6.5-8.8-11c-2.4-4.5-3.5-10-3.5-16.6v-34.2c0-6.5,1.2-12,3.5-16.5c2.4-4.5,5.3-8.2,8.8-11c3.5-2.8,7.4-4.8,11.5-6.1
		c4.1-1.2,8-1.8,11.5-1.8h45.6c6.5,0,12,1.2,16.5,3.5s8.2,5.3,11,8.8c2.8,3.5,4.8,7.4,6.1,11.5c1.3,4.1,1.9,8,1.9,11.6V166.1z
		 M1401.1,132c0-3.5-0.9-6.1-2.6-7.8c-1.7-1.7-4.3-2.5-7.6-2.5h-45.4c-3.4,0-5.9,0.9-7.7,2.6c-1.7,1.7-2.6,4.2-2.6,7.5v34.2
		c0,3.3,0.9,5.8,2.6,7.6c1.8,1.7,4.3,2.6,7.7,2.6h45.4c3.4,0,6-0.9,7.7-2.6c1.7-1.7,2.5-4.3,2.5-7.6V132z"/>
	<path class="st0" d="M1620.8,96.5c-4,9-8.4,17.9-13,26.6c-4.7,8.7-9.5,17-14.6,24.7c-5.1,7.8-10.3,14.9-15.6,21.5
		c-5.3,6.6-10.6,12.2-15.8,17c-5.2,4.8-10.3,8.5-15.3,11.2c-5,2.7-9.6,4-14,4c-1.8,0-3.5-0.3-5.1-1c-1.6-0.6-2.9-1.5-4.1-2.7
		c-1.2-1.1-2.1-2.5-2.7-4s-1-3.2-1-5.1v-47.1l-50.1,56.1c-1.3,1.3-2.7,2.3-4.2,2.9c-1.5,0.6-3.1,0.9-4.7,0.9c-1.8,0-3.4-0.3-4.9-1
		c-1.5-0.6-2.9-1.5-4-2.7c-1.2-1.1-2.1-2.5-2.8-4c-0.7-1.6-1-3.2-1-5.1V96.5h25.3v59.9l50.3-56.3c1.8-1.8,4-3,6.5-3.4
		c2.5-0.5,4.9-0.2,7.3,0.8c2.4,1,4.3,2.5,5.7,4.6c1.4,2.1,2.1,4.4,2.1,6.9v60c5.4-5.2,10.4-10.8,14.8-16.6c4.4-5.8,8.5-11.8,12.3-18
		c3.8-6.2,7.4-12.5,10.7-18.9c3.3-6.4,6.6-12.7,9.8-19.1H1620.8z"/>
	<path class="st0" d="M1731.1,166.1c0,4.3-0.6,8.2-1.7,11.7c-1.1,3.5-2.6,6.5-4.4,9.1c-1.8,2.6-3.9,4.9-6.3,6.7
		c-2.4,1.8-4.9,3.4-7.5,4.5c-2.6,1.2-5.3,2-8,2.6c-2.7,0.6-5.2,0.8-7.6,0.8h-68.4v-25.3h68.2c3.4,0,6-0.9,7.8-2.6s2.6-4.3,2.6-7.6
		c-0.3-6.7-3.7-10.1-10.2-10.1h-39.2c-5.6,0-10.3-1-14.2-2.9s-7-4.4-9.5-7.3c-2.4-2.9-4.2-6.1-5.2-9.4c-1.1-3.4-1.6-6.5-1.6-9.4
		c0-5.6,1-10.4,3-14.2c2-3.9,4.5-7,7.6-9.4c3-2.4,6.3-4.1,9.9-5.2c3.6-1.1,6.9-1.6,10-1.6h62.1v25.3h-61.9c-1.3,0-2.3,0.1-3.1,0.4
		c-0.7,0.3-1.3,0.7-1.7,1.2c-0.4,0.5-0.6,1-0.6,1.6c-0.1,0.6-0.1,1.1-0.1,1.6c0.1,1,0.3,1.8,0.6,2.4s0.7,1,1.2,1.3
		c0.5,0.3,1,0.4,1.7,0.4c0.6,0,1.2,0,1.8,0h39.2c6.5,0,12,1.2,16.5,3.5c4.5,2.3,8.2,5.3,11,8.8c2.8,3.5,4.8,7.4,6.1,11.5
		C1730.4,158.6,1731.1,162.5,1731.1,166.1z"/>
	<path class="st0" d="M1861.7,131.3c0,3.5-0.6,7.3-1.8,11.3c-1.2,4-3.2,7.8-6,11.3c-2.8,3.5-6.3,6.4-10.8,8.7
		c-4.4,2.3-9.8,3.5-16.2,3.5h-45.6v-24h45.6c3.4,0,6.1-1.1,8-3.2c1.9-2.1,2.8-4.7,2.8-7.8c0-3.3-1.1-5.9-3.2-7.8
		c-2.1-1.9-4.6-2.8-7.6-2.8h-45.6c-3.4,0-6.1,1.1-8,3.2c-1.9,2.1-2.8,4.7-2.8,7.8v35.3c0,3.4,1.1,6,3.2,7.9c2.1,1.9,4.7,2.8,7.8,2.8
		h45.4v24.1h-45.6c-3.5,0-7.3-0.6-11.3-1.8c-4-1.2-7.8-3.2-11.3-6c-3.5-2.8-6.4-6.3-8.7-10.8c-2.3-4.4-3.5-9.8-3.5-16.2v-35.5
		c0-3.5,0.6-7.3,1.8-11.3c1.2-4,3.2-7.8,6-11.3c2.8-3.5,6.3-6.4,10.8-8.7c4.4-2.3,9.8-3.5,16.2-3.5h45.6c3.5,0,7.3,0.6,11.3,1.8
		c4,1.2,7.8,3.2,11.3,6c3.5,2.8,6.4,6.3,8.7,10.8C1860.6,119.5,1861.7,124.9,1861.7,131.3z"/>
</g>
<polygon class="st1" points="221.1,10.6 81.1,10.6 11.1,131.9 81.1,253.1 221.1,253.1 291.1,131.9 "/>
<polygon class="st2" points="208,50.5 109.1,41.8 52.1,123.2 94.1,213.2 193,221.9 250,140.5 "/>
<polygon class="st3" points="188.9,86.8 130.9,76.6 93.1,121.6 113.2,176.9 171.2,187.1 209,142.1 "/>
</svg>
